<svg xmlns="http://www.w3.org/2000/svg" viewBox="0 0 24.28 23.92"><defs><style>.cls-1{fill:none;stroke:#4d4d4d;stroke-linejoin:round;stroke-width:0.85px;}</style></defs><g id="圖層_2" data-name="圖層 2"><g id="圖層_1-2" data-name="圖層 1"><path class="cls-1" d="M22.6,16V21.3a2.2,2.2,0,0,1-2.2,2.19H2.62A2.2,2.2,0,0,1,.42,21.3V5.69A2.2,2.2,0,0,1,2.62,3.5H8.35"/><path class="cls-1" d="M16.1-1.16h1.05A2.14,2.14,0,0,1,19.29,1v15.5a0,0,0,0,1,0,0H14a0,0,0,0,1,0,0V1A2.14,2.14,0,0,1,16.1-1.16Z" transform="translate(10.29 -9.51) rotate(45)"/><polygon class="cls-1" points="7.12 17.17 12.27 15.79 8.5 12.01 7.12 17.17"/><rect class="cls-1" x="12.65" y="1.99" width="5.34" height="13.95" transform="translate(10.83 -8.2) rotate(45)"/></g></g></svg>