<svg xmlns="http://www.w3.org/2000/svg" viewBox="0 0 21.63 21.63"><defs><style>.cls-1{fill:#e94515;stroke:#e94515;stroke-miterlimit:10;stroke-width:0.25px;}</style></defs><g id="圖層_2" data-name="圖層 2"><g id="圖層_1-2" data-name="圖層 1"><path class="cls-1" d="M19.28,21.51H2.35A2.22,2.22,0,0,1,.13,19.28v-8a.44.44,0,0,1,.44-.44.45.45,0,0,1,.45.44v8a1.34,1.34,0,0,0,1.33,1.34H19.28a1.34,1.34,0,0,0,1.34-1.34V5.92a1.34,1.34,0,0,0-1.34-1.34H15.72a.45.45,0,1,1,0-.89h3.56a2.23,2.23,0,0,1,2.23,2.23V19.28A2.23,2.23,0,0,1,19.28,21.51Z"/><path class="cls-1" d="M15.72,14.38a.45.45,0,0,1-.4-.24l-.75-1.5a4.89,4.89,0,0,0-4.39-2.71H7.25V13a.46.46,0,0,1-.27.42.45.45,0,0,1-.49-.1L.26,7.12a.43.43,0,0,1,0-.63L6.49.26a.44.44,0,0,1,.76.31V3.69H8.59a7.58,7.58,0,0,1,7.57,7.57v2.68a.45.45,0,0,1-.34.43ZM6.81,9h3.37a5.77,5.77,0,0,1,5.09,3v-.8A6.69,6.69,0,0,0,8.59,4.58H6.81a.45.45,0,0,1-.45-.45V1.65L1.2,6.81,6.36,12V9.48A.44.44,0,0,1,6.81,9Z"/></g></g></svg>