<svg xmlns="http://www.w3.org/2000/svg" viewBox="0 0 343.99 83.68"><defs><style>.cls-1{fill:#e94515;}.cls-2{fill:#494949;}.cls-3{fill:#747474;}</style></defs><g id="圖層_2" data-name="圖層 2"><g id="圖層_1-2" data-name="圖層 1"><path class="cls-1" d="M0,.91C2.49,1,5.24,1,8.27,1s5.86,0,8.26-.11l.14,1.37-3.49,1a.85.85,0,0,0-.7.81c0,.64,0,1.34,0,2.08s0,1.54,0,2.4V23.35q0,7.32,2.2,10.13t7.14,2.81q4.85,0,7.28-3t2.43-9.62V8.56q0-1.29,0-2.4c0-.74,0-1.44-.05-2.08a.85.85,0,0,0-.7-.81l-3.32-.94L27.29.91q3.57.1,6.18.11,2.41,0,6.06-.11l.14,1.37L36,3.33a.86.86,0,0,0-.67.88c0,.61,0,1.28,0,2s0,1.54,0,2.44V22.3q0,9.24-3.79,13.25t-11,4q-8.23,0-12.16-3.82T4.37,23.48V8.67c0-.9,0-1.71,0-2.44s0-1.41,0-2a.86.86,0,0,0-.64-.88L.08,2.28Z"/><path class="cls-1" d="M40.58,15.92l-.16-1.11q6.19-.9,11.35-2l.4.21v2.52a15,15,0,0,1,8-2.65,10.17,10.17,0,0,1,8,3.34,12.64,12.64,0,0,1,3,8.73q0,6.69-4.18,10.5T56,39.24a20.68,20.68,0,0,1-3.82-.38v5.67c0,1.77,0,3,.06,3.73a1,1,0,0,0,.72,1l3.79,1,.08,1.29q-4.45-.08-8.38-.08t-7.89.08l-.13-1.29,3.38-.94a.79.79,0,0,0,.67-.8c0-1.33.06-3.31.06-6V31.83q0-11.7-.11-14.92ZM52.17,36.18a17.23,17.23,0,0,0,3.63.4,6.06,6.06,0,0,0,5.37-2.71C62.38,32.06,63,29.48,63,26.11c0-3.16-.57-5.56-1.72-7.18a5.71,5.71,0,0,0-5-2.42,9.27,9.27,0,0,0-4.14.88Z"/><path class="cls-2" d="M117,43.1l.41,1.48q-5.48,6.12-9.05,6.12a12.64,12.64,0,0,1-8-2.69q-3.46-2.67-5.4-8.53-9-.19-14-5.33t-5-14q0-9.28,5.51-14.7T96.67,0Q106,0,111.11,5.09t5.1,13.8q0,8.67-4.72,14.11A18.51,18.51,0,0,1,99,39.26q2.58,5.22,11.3,5.21A15.58,15.58,0,0,0,117,43.1ZM85,19.24q0,8.6,2.9,13.14a9.46,9.46,0,0,0,8.51,4.55q5.52,0,8.17-4.13t2.64-13q0-8.32-2.79-12.79T95.76,2.55q-5.67,0-8.23,4.15T85,19.24Z"/><path class="cls-2" d="M140.71,36.34a14.21,14.21,0,0,1-8.58,2.9q-4.35,0-6.55-2.15a8,8,0,0,1-2.2-6V25.36c0-3.83,0-6.64-.11-8.45l-3.84-1-.16-1.11q6.57-1,11.6-2.06l.29.21c-.11,2.24-.16,5-.16,8.3v8.26a7,7,0,0,0,1.25,4.63,4.42,4.42,0,0,0,3.53,1.44,10,10,0,0,0,4.67-1.1V23.05q0-3.75-.11-6.2l-3.62-.93-.17-1.11q6.38-1,11.36-2.06l.32.21Q148,16.4,148,21.42c0,6.49,0,10.46,0,11.89a10.52,10.52,0,0,0,.16,1.73,1.8,1.8,0,0,0,.51,1,2.21,2.21,0,0,0,1.11.5,12.81,12.81,0,0,0,2.11.18l.13,1.18a20.89,20.89,0,0,1-6.65,1.34C143,39.24,141.47,38.27,140.71,36.34Z"/><path class="cls-2" d="M184,25.52A12.92,12.92,0,0,1,180,35.44a15,15,0,0,1-10.63,3.8q-6.36,0-10.14-3.58a12.35,12.35,0,0,1-3.78-9.39,12.7,12.7,0,0,1,4-9.64q4-3.78,10.73-3.77,6.42,0,10.17,3.47A11.91,11.91,0,0,1,184,25.52Zm-20.29.22a18.34,18.34,0,0,0,1.47,7.93,4.87,4.87,0,0,0,4.68,3A4.67,4.67,0,0,0,174.3,34c.94-1.79,1.41-4.44,1.41-8a17,17,0,0,0-1.49-7.82,4.9,4.9,0,0,0-4.65-2.86A4.71,4.71,0,0,0,165.18,18C164.22,19.67,163.74,22.27,163.74,25.74Z"/><path class="cls-2" d="M198.34,16.75q-.17,8.37-.16,14.19a6.17,6.17,0,0,0,.83,3.75c.55.69,1.62,1,3.19,1,1.22,0,2.54-.07,4-.21l.22,1.61a18.29,18.29,0,0,1-8,2.09,9.36,9.36,0,0,1-5.81-1.57,5.59,5.59,0,0,1-2.06-4.74q0-5.58.17-16.29l-3.63-.94-.24-1.45,4.48-.4,2.55-6.31c1.52-.26,2.91-.52,4.16-.77l.38.18c-.06,2.17-.08,4.47-.08,6.9h7.51v2.93Z"/><path class="cls-2" d="M211.52,15.46a26.4,26.4,0,0,1,11-2.6q4.83,0,7.23,2.16a7.88,7.88,0,0,1,2.38,6.21L232,32.39a13.26,13.26,0,0,0,.06,2.2,2.35,2.35,0,0,0,.49,1.28,2.13,2.13,0,0,0,1.16.63,10.47,10.47,0,0,0,2.21.22l.16,1.23a20.42,20.42,0,0,1-6.47,1.29q-3.65,0-4.8-2.87a11.07,11.07,0,0,1-7.22,2.87,9.73,9.73,0,0,1-6.15-1.87A6.23,6.23,0,0,1,209,32.13a6.5,6.5,0,0,1,3.9-6.18q3.92-1.95,11.72-2l0-2a5.61,5.61,0,0,0-1.39-4.23,6.14,6.14,0,0,0-4.38-1.35,22.6,22.6,0,0,0-6.63,1.21Zm13.12,11.08q-4.21,0-6,1.08a3.92,3.92,0,0,0-1.8,3.67,4,4,0,0,0,1.27,3.37,4.74,4.74,0,0,0,3,1,6,6,0,0,0,3.47-1Z"/><path class="cls-2" d="M249.2,16.75Q249,25.12,249,30.94a6.17,6.17,0,0,0,.83,3.75c.55.69,1.62,1,3.19,1,1.22,0,2.54-.07,4-.21l.22,1.61a18.29,18.29,0,0,1-8,2.09,9.36,9.36,0,0,1-5.81-1.57,5.59,5.59,0,0,1-2.06-4.74q0-5.58.16-16.29L238,15.67l-.24-1.45,4.48-.4,2.55-6.31c1.52-.26,2.91-.52,4.16-.77l.38.18c-.06,2.17-.08,4.47-.08,6.9h7.51v2.93Z"/><path class="cls-2" d="M259.72,14.81q6.6-1,11.59-2.06l.3.21q-.17,3.7-.16,7.89V31c0,2.13,0,3.62.05,4.46a.94.94,0,0,0,.67.91l3.36.94.08,1.29c-2.65-.06-5.28-.08-7.89-.08s-5.3,0-7.9.08l-.13-1.29,3.41-.94a.84.84,0,0,0,.67-.81c0-.69.05-1.87.05-3.51V23.38c0-2.35,0-4.5-.1-6.47l-3.84-1Zm11.81-11a4,4,0,0,1-1.2,3A4.29,4.29,0,0,1,267.21,8a4.07,4.07,0,0,1-2.92-1.08,3.74,3.74,0,0,1-1.14-2.83,3.89,3.89,0,0,1,1.21-3A4.5,4.5,0,0,1,267.5,0a4.2,4.2,0,0,1,2.9,1A3.63,3.63,0,0,1,271.53,3.86Z"/><path class="cls-2" d="M307.44,25.52a12.92,12.92,0,0,1-4.08,9.92,15,15,0,0,1-10.63,3.8q-6.36,0-10.15-3.58a12.35,12.35,0,0,1-3.78-9.39,12.7,12.7,0,0,1,4-9.64q4-3.78,10.74-3.77,6.4,0,10.17,3.47A12,12,0,0,1,307.44,25.52Zm-20.29.22a18.35,18.35,0,0,0,1.46,7.93,4.88,4.88,0,0,0,4.68,3A4.67,4.67,0,0,0,297.71,34c.94-1.79,1.41-4.44,1.41-8a17.1,17.1,0,0,0-1.49-7.82A4.93,4.93,0,0,0,293,15.38,4.71,4.71,0,0,0,288.58,18C287.62,19.67,287.15,22.27,287.15,25.74Z"/><path class="cls-2" d="M310.84,14.81q6.21-.9,11.33-2l.4.21v2.87a16.24,16.24,0,0,1,9-3A8.51,8.51,0,0,1,337.68,15a8,8,0,0,1,2.23,6v9.42c0,2.24,0,3.89,0,5a.91.91,0,0,0,.7.91l3.25.94.08,1.29c-2.56-.06-5.13-.08-7.73-.08s-5.1,0-7.25.08l-.1-1.29,2.68-.81a.85.85,0,0,0,.67-.8c0-.27,0-.83,0-1.69V22.73q0-3.3-1.29-4.73a4.89,4.89,0,0,0-3.84-1.44,9.59,9.59,0,0,0-4.59,1.29V29.39q0,3.34.06,6.14a.83.83,0,0,0,.61.89l2.8.86,0,1.29c-2.22-.06-4.64-.08-7.25-.08s-5.28,0-7.86.08l-.14-1.29,3.47-.94a.78.78,0,0,0,.61-.81q0-1.71,0-3.3V23.4c0-2.34,0-4.51-.11-6.49l-3.83-1Z"/><path class="cls-3" d="M12.63,76.93c.49-1.46,1-2.94,1.57-4.43l2.57-6.89h1.64L13.32,79H11.89L6.81,65.61H8.44L11,72.5c.56,1.49,1.09,3,1.57,4.43Z"/><path class="cls-3" d="M24.09,77.92a7.69,7.69,0,0,0,1.41-.13,7.84,7.84,0,0,0,1.27-.36v1.3a5.3,5.3,0,0,1-1.27.39,8.23,8.23,0,0,1-1.61.15A7,7,0,0,1,22,79a4.08,4.08,0,0,1-1.55-.84,4,4,0,0,1-1-1.52A6.12,6.12,0,0,1,19,74.39a6.42,6.42,0,0,1,.36-2.26,4.77,4.77,0,0,1,1-1.6,3.83,3.83,0,0,1,1.38-1,4.12,4.12,0,0,1,1.63-.32,4.06,4.06,0,0,1,1.49.26,3.15,3.15,0,0,1,1.21.84,4,4,0,0,1,.8,1.47,6.89,6.89,0,0,1,.3,2.17v.2c0,.06,0,.19,0,.39H20.56a3.8,3.8,0,0,0,.28,1.55,2.72,2.72,0,0,0,.75,1,3.22,3.22,0,0,0,1.12.58A5,5,0,0,0,24.09,77.92Zm-.82-7.34a2.39,2.39,0,0,0-1,.21,2.58,2.58,0,0,0-.81.57,2.77,2.77,0,0,0-.55.85,3.26,3.26,0,0,0-.27,1h4.87a3.84,3.84,0,0,0-.14-1,2.54,2.54,0,0,0-.44-.85,2,2,0,0,0-.7-.57A2.19,2.19,0,0,0,23.27,70.58Z"/><path class="cls-3" d="M31.44,70.8h0a4.22,4.22,0,0,1,.58-.62,3.58,3.58,0,0,1,.71-.49,3.84,3.84,0,0,1,.84-.32,3.79,3.79,0,0,1,1-.12,4.08,4.08,0,0,1,1.09.14,2.74,2.74,0,0,1,1,.52,2.55,2.55,0,0,1,.75,1,4.33,4.33,0,0,1,.29,1.7V79H36.15V72.89a2.86,2.86,0,0,0-.44-1.73,1.65,1.65,0,0,0-1.43-.58,3,3,0,0,0-1.56.44,4.27,4.27,0,0,0-1.28,1.23V79H29.88V64.5h1.56Z"/><path class="cls-3" d="M40.77,67.28V65.55h1.55v1.73Zm0,11.74V69.5h1.55V79Z"/><path class="cls-3" d="M49.56,69.25a5.68,5.68,0,0,1,1.32.14A4,4,0,0,1,52,69.8v1.29a8.92,8.92,0,0,0-1.17-.36,4.83,4.83,0,0,0-1.08-.12,3.51,3.51,0,0,0-1.15.19,2.6,2.6,0,0,0-1,.63,3,3,0,0,0-.73,1.15,4.85,4.85,0,0,0-.28,1.78,4.6,4.6,0,0,0,.21,1.42,3.16,3.16,0,0,0,.61,1.13,2.74,2.74,0,0,0,1,.74,3.44,3.44,0,0,0,1.41.27A5.82,5.82,0,0,0,51,77.79a6,6,0,0,0,1.16-.36v1.3l-.45.2c-.18.06-.39.12-.61.17a6.78,6.78,0,0,1-.7.12,6.13,6.13,0,0,1-.74,0A5.74,5.74,0,0,1,47.8,79a4.21,4.21,0,0,1-1.5-.89,4.26,4.26,0,0,1-1-1.53,5.75,5.75,0,0,1-.37-2.18,6.8,6.8,0,0,1,.19-1.7,4.93,4.93,0,0,1,.54-1.32,4,4,0,0,1,.8-1,4.38,4.38,0,0,1,1-.66,4.52,4.52,0,0,1,1.07-.37A4.92,4.92,0,0,1,49.56,69.25Z"/><path class="cls-3" d="M54.57,79V64.5h1.55V79Z"/><path class="cls-3" d="M63.75,77.92a7.52,7.52,0,0,0,1.41-.13,7.3,7.3,0,0,0,1.27-.36v1.3a5.07,5.07,0,0,1-1.26.39,8.26,8.26,0,0,1-1.62.15A7,7,0,0,1,61.63,79a4.23,4.23,0,0,1-1.55-.84,4,4,0,0,1-1-1.52,6.33,6.33,0,0,1-.37-2.26A6.42,6.42,0,0,1,59,72.13a4.77,4.77,0,0,1,1-1.6,3.83,3.83,0,0,1,1.38-1,4.38,4.38,0,0,1,3.13-.06,3.12,3.12,0,0,1,1.2.84,4.13,4.13,0,0,1,.81,1.47A7.21,7.21,0,0,1,66.81,74v.2c0,.06,0,.19,0,.39H60.23a4,4,0,0,0,.27,1.55,2.72,2.72,0,0,0,.75,1,3.22,3.22,0,0,0,1.12.58A5.11,5.11,0,0,0,63.75,77.92Zm-.82-7.34a2.42,2.42,0,0,0-1,.21,2.66,2.66,0,0,0-.8.57,2.79,2.79,0,0,0-.56.85,3.25,3.25,0,0,0-.26,1h4.87a3.49,3.49,0,0,0-.15-1,2.52,2.52,0,0,0-.43-.85,2,2,0,0,0-.7-.57A2.27,2.27,0,0,0,62.93,70.58Z"/><path class="cls-3" d="M85.37,72a7.38,7.38,0,0,1-.49,2.64,7.59,7.59,0,0,1-1.27,2.09l.8.83.67.7.48.48.23.24h-2l-.39-.39-.87-.88a7.63,7.63,0,0,1-2.1,1.13,6.92,6.92,0,0,1-2.28.39,5.35,5.35,0,0,1-1.89-.3A3.72,3.72,0,0,1,75,78.18a3,3,0,0,1-.73-1.12A3.57,3.57,0,0,1,74,75.78a3.82,3.82,0,0,1,.22-1.37,3.62,3.62,0,0,1,.61-1,5.29,5.29,0,0,1,.89-.81,10.15,10.15,0,0,1,1-.66c-.26-.25-.52-.51-.75-.76a5.74,5.74,0,0,1-.63-.79,4.3,4.3,0,0,1-.41-.87,3.42,3.42,0,0,1,.11-2.31,2.71,2.71,0,0,1,.76-1,3.43,3.43,0,0,1,1.17-.61,5.17,5.17,0,0,1,1.52-.21,4.91,4.91,0,0,1,1.41.19,3.33,3.33,0,0,1,1.15.56,2.64,2.64,0,0,1,.76.93,2.73,2.73,0,0,1,.29,1.27,3.05,3.05,0,0,1-.27,1.32,3.53,3.53,0,0,1-.69,1,5.22,5.22,0,0,1-1,.81c-.37.23-.75.46-1.14.67l.74.77.88.9.93,1,1,1a5.48,5.48,0,0,0,.81-1.58A6.8,6.8,0,0,0,83.75,72ZM78.18,78a5.77,5.77,0,0,0,.79-.07,4.59,4.59,0,0,0,.87-.21,5.93,5.93,0,0,0,.89-.36,4.79,4.79,0,0,0,.85-.53l-1-1-1-1.05-1-1-.84-.86a9.68,9.68,0,0,0-.82.54,4.35,4.35,0,0,0-.66.62,2.62,2.62,0,0,0-.45.73,2.19,2.19,0,0,0-.17.9,2.45,2.45,0,0,0,.15.85,1.93,1.93,0,0,0,.46.73,2.22,2.22,0,0,0,.79.52A3.16,3.16,0,0,0,78.18,78Zm-1.7-9.48a2.28,2.28,0,0,0,.11.7,2.72,2.72,0,0,0,.33.66,5.69,5.69,0,0,0,.52.65l.72.72c.32-.17.62-.34.91-.52a4.73,4.73,0,0,0,.77-.59,2.75,2.75,0,0,0,.52-.72,2.1,2.1,0,0,0,.19-.92,1.94,1.94,0,0,0-.15-.8A1.52,1.52,0,0,0,80,67.1a1.72,1.72,0,0,0-.65-.32,3,3,0,0,0-.82-.1,2.21,2.21,0,0,0-1.49.46A1.65,1.65,0,0,0,76.48,68.47Z"/><path class="cls-3" d="M93.68,69.15a1.8,1.8,0,0,0,.24,1,2,2,0,0,0,.65.64,3.86,3.86,0,0,0,.94.41q.52.16,1.11.3c.52.13,1,.27,1.54.42a5,5,0,0,1,1.34.64,3.1,3.1,0,0,1,1,1,3.37,3.37,0,0,1,.37,1.68,3.79,3.79,0,0,1-.4,1.8,3.34,3.34,0,0,1-1.09,1.24,4.6,4.6,0,0,1-1.65.72,8.48,8.48,0,0,1-2.08.24,7.79,7.79,0,0,1-1.07-.07,10.27,10.27,0,0,1-1-.17c-.33-.08-.63-.16-.9-.25A4,4,0,0,1,92,78.5V77a6.19,6.19,0,0,0,.81.33,9.07,9.07,0,0,0,.93.26c.32.07.65.12,1,.17a7.75,7.75,0,0,0,.93.06,6.38,6.38,0,0,0,1.33-.13,3.37,3.37,0,0,0,1.12-.4,2,2,0,0,0,.76-.76,2.39,2.39,0,0,0,.28-1.22,1.86,1.86,0,0,0-.24-1,2,2,0,0,0-.66-.65,4.05,4.05,0,0,0-.94-.42L96.12,73c-.52-.12-1-.25-1.53-.4a4.67,4.67,0,0,1-1.33-.63,3.13,3.13,0,0,1-1-1A3.34,3.34,0,0,1,92,69.28a3.81,3.81,0,0,1,.37-1.76,3.45,3.45,0,0,1,1-1.22,4.37,4.37,0,0,1,1.47-.71,6.43,6.43,0,0,1,1.78-.23,9.1,9.1,0,0,1,2,.2,10,10,0,0,1,1.7.54v1.51A12.83,12.83,0,0,0,98.57,67a8.24,8.24,0,0,0-1.9-.23,4.68,4.68,0,0,0-1.32.16,2.53,2.53,0,0,0-.94.48,1.92,1.92,0,0,0-.55.74A2.49,2.49,0,0,0,93.68,69.15Z"/><path class="cls-3" d="M112,74.15a7.22,7.22,0,0,1-.2,1.76,5.2,5.2,0,0,1-.52,1.33,3.68,3.68,0,0,1-.75,1,3.92,3.92,0,0,1-.9.62,3.8,3.8,0,0,1-.94.34,4.25,4.25,0,0,1-.9.11,3.71,3.71,0,0,1-1.52-.29,3.48,3.48,0,0,1-1.16-.84h0v5.54h-1.52V69.5h1.17l.33,1.08h0a2,2,0,0,1,.33-.39,3.78,3.78,0,0,1,1.39-.78,3.23,3.23,0,0,1,1.06-.16,4.46,4.46,0,0,1,1.54.27,3.36,3.36,0,0,1,1.32.86,4.29,4.29,0,0,1,.92,1.52A6.4,6.4,0,0,1,112,74.15Zm-1.63,0a5.71,5.71,0,0,0-.18-1.5,3.13,3.13,0,0,0-.52-1.12,2.4,2.4,0,0,0-.87-.72,2.64,2.64,0,0,0-1.19-.25,2.71,2.71,0,0,0-.88.13A3.41,3.41,0,0,0,106,71a3.18,3.18,0,0,0-.56.43,4.13,4.13,0,0,0-.37.41v5a3.62,3.62,0,0,0,1.12.79,3.11,3.11,0,0,0,1.36.3,3,3,0,0,0,.94-.17,2.34,2.34,0,0,0,.91-.59,3.25,3.25,0,0,0,.69-1.16A5.46,5.46,0,0,0,110.32,74.17Z"/><path class="cls-3" d="M120,78h0a2.69,2.69,0,0,1-.48.47,2.94,2.94,0,0,1-.67.42,4.06,4.06,0,0,1-.83.3,4.21,4.21,0,0,1-1,.11,3.68,3.68,0,0,1-1.27-.21,2.69,2.69,0,0,1-1.64-1.57,3.49,3.49,0,0,1-.23-1.29,2.89,2.89,0,0,1,.26-1.27,2.7,2.7,0,0,1,.71-1,3.13,3.13,0,0,1,1.11-.6,4.33,4.33,0,0,1,1.43-.22,8.28,8.28,0,0,1,1.37.13,8.15,8.15,0,0,1,1.12.3h0v-.66a3.6,3.6,0,0,0,0-.69,1.65,1.65,0,0,0-.17-.53,2,2,0,0,0-.83-.8,3.19,3.19,0,0,0-1.54-.31,6.54,6.54,0,0,0-1.36.13,8.75,8.75,0,0,0-1.27.38v-1.3a4,4,0,0,1,.57-.23,6.75,6.75,0,0,1,.68-.18,6.2,6.2,0,0,1,.77-.11,7,7,0,0,1,.8,0,4.83,4.83,0,0,1,2.36.51,3.07,3.07,0,0,1,1.32,1.35,2.56,2.56,0,0,1,.21.71,4.39,4.39,0,0,1,.07.84V79h-1.31Zm-.08-3.13c-.28-.08-.62-.16-1-.23a6.61,6.61,0,0,0-1.3-.12,2.55,2.55,0,0,0-1.55.42,1.52,1.52,0,0,0-.56,1.29,2,2,0,0,0,.14.77,1.48,1.48,0,0,0,.39.55,1.55,1.55,0,0,0,.58.32,2.35,2.35,0,0,0,.71.11,2.83,2.83,0,0,0,.93-.15,4.26,4.26,0,0,0,1.33-.75,2.9,2.9,0,0,0,.34-.31Z"/><path class="cls-3" d="M129.68,70.76h-.12a5.67,5.67,0,0,0-1.09.1,5.18,5.18,0,0,0-1,.3,4.26,4.26,0,0,0-.85.51,2.81,2.81,0,0,0-.62.71V79h-1.56V69.5h1.21L126,71h0a3.32,3.32,0,0,1,.56-.69,3.82,3.82,0,0,1,.76-.56,4,4,0,0,1,.92-.38,4.11,4.11,0,0,1,1.06-.13h.39Z"/><path class="cls-3" d="M135.85,77.92a7.43,7.43,0,0,0,2.68-.49v1.3a5.07,5.07,0,0,1-1.26.39,8.33,8.33,0,0,1-1.62.15,7,7,0,0,1-1.92-.26,4.16,4.16,0,0,1-1.55-.84,4,4,0,0,1-1-1.52,6.12,6.12,0,0,1-.37-2.26,6.42,6.42,0,0,1,.36-2.26,4.77,4.77,0,0,1,1-1.6,3.83,3.83,0,0,1,1.38-1,4.12,4.12,0,0,1,1.63-.32,4.06,4.06,0,0,1,1.49.26,3.08,3.08,0,0,1,1.21.84,4,4,0,0,1,.8,1.47,6.89,6.89,0,0,1,.3,2.17v.2c0,.06,0,.19,0,.39h-6.58a3.8,3.8,0,0,0,.28,1.55,2.72,2.72,0,0,0,.75,1,3.22,3.22,0,0,0,1.12.58A5.11,5.11,0,0,0,135.85,77.92ZM135,70.58a2.39,2.39,0,0,0-1,.21,2.54,2.54,0,0,0-.8.57,2.79,2.79,0,0,0-.56.85,3.56,3.56,0,0,0-.27,1h4.87a3.49,3.49,0,0,0-.14-1,2.52,2.52,0,0,0-.43-.85,2.15,2.15,0,0,0-.7-.57A2.27,2.27,0,0,0,135,70.58Z"/><path class="cls-3" d="M147.49,79h-1.63V65.61h3.71a10.58,10.58,0,0,1,1.54.1,6.09,6.09,0,0,1,1.29.31,3.68,3.68,0,0,1,1.83,1.29,3.51,3.51,0,0,1,.62,2.11,3.78,3.78,0,0,1-.41,1.79,3.47,3.47,0,0,1-1.17,1.3,5.76,5.76,0,0,1-1.88.79,10.61,10.61,0,0,1-2.51.27c-.45,0-.91,0-1.39-.06Zm0-7q.33,0,.69.06l.68,0a9.25,9.25,0,0,0,2-.18,3.83,3.83,0,0,0,1.32-.52,2.13,2.13,0,0,0,.74-.85,2.52,2.52,0,0,0,.23-1.12,2.1,2.1,0,0,0-.37-1.29,2.32,2.32,0,0,0-1.07-.76,4.5,4.5,0,0,0-1-.23,12.56,12.56,0,0,0-1.31-.06h-1.89Z"/><path class="cls-3" d="M162.94,78h0a3.17,3.17,0,0,1-.49.47,2.94,2.94,0,0,1-.67.42,4.06,4.06,0,0,1-.83.3,4.21,4.21,0,0,1-1,.11,3.72,3.72,0,0,1-1.27-.21,2.64,2.64,0,0,1-1-.6,2.67,2.67,0,0,1-.65-1,3.49,3.49,0,0,1-.23-1.29,3,3,0,0,1,.26-1.27,2.7,2.7,0,0,1,.71-1,3.13,3.13,0,0,1,1.11-.6,4.33,4.33,0,0,1,1.43-.22,8.28,8.28,0,0,1,1.37.13,8.73,8.73,0,0,1,1.13.3h0v-.66a4.65,4.65,0,0,0-.05-.69,1.94,1.94,0,0,0-.17-.53,2.1,2.1,0,0,0-.84-.8,3.19,3.19,0,0,0-1.54-.31,6.61,6.61,0,0,0-1.36.13,8.75,8.75,0,0,0-1.27.38v-1.3a4,4,0,0,1,.57-.23,7,7,0,0,1,.69-.18,5.79,5.79,0,0,1,.76-.11,7.14,7.14,0,0,1,.8,0,4.83,4.83,0,0,1,2.36.51,3.07,3.07,0,0,1,1.32,1.35,2.56,2.56,0,0,1,.21.71,4.39,4.39,0,0,1,.07.84V79h-1.3Zm-.08-3.13c-.29-.08-.63-.16-1-.23a6.53,6.53,0,0,0-1.3-.12,2.55,2.55,0,0,0-1.55.42,1.51,1.51,0,0,0-.55,1.29,1.83,1.83,0,0,0,.14.77,1.46,1.46,0,0,0,.38.55,1.64,1.64,0,0,0,.58.32,2.35,2.35,0,0,0,.71.11,2.83,2.83,0,0,0,.93-.15,3.56,3.56,0,0,0,.76-.35,3,3,0,0,0,.57-.4,4.57,4.57,0,0,0,.35-.31Z"/><path class="cls-3" d="M172.64,70.76h-.12a5.49,5.49,0,0,0-1.08.1,5.07,5.07,0,0,0-1,.3,3.92,3.92,0,0,0-.84.51,2.85,2.85,0,0,0-.63.71V79h-1.55V69.5h1.2l.3,1.51h0a3.08,3.08,0,0,1,.57-.69,3.49,3.49,0,0,1,.75-.56,3.86,3.86,0,0,1,.93-.38,4,4,0,0,1,1.05-.13h.39Z"/><path class="cls-3" d="M179.31,79a3.57,3.57,0,0,1-.61.15,6.57,6.57,0,0,1-1,.08,3.92,3.92,0,0,1-1.3-.19,2.45,2.45,0,0,1-.92-.53,2.32,2.32,0,0,1-.55-.84,3.12,3.12,0,0,1-.18-1.09V70.83h-1.83V69.5h1.83V66.89h1.56V69.5h2.85v1.33h-2.85v5.55a2,2,0,0,0,.09.61,1.44,1.44,0,0,0,.3.49,1.47,1.47,0,0,0,.53.32,2.18,2.18,0,0,0,.77.12,5.14,5.14,0,0,0,.66,0c.23,0,.44-.08.63-.13Z"/><path class="cls-3" d="M182.53,72a1.13,1.13,0,0,0,.17.64,1.19,1.19,0,0,0,.45.41,2.67,2.67,0,0,0,.64.25c.25.07.5.13.76.18s.7.17,1,.27a3,3,0,0,1,.89.44,2,2,0,0,1,.65.78,2.82,2.82,0,0,1,.25,1.29,2.77,2.77,0,0,1-.28,1.28,2.52,2.52,0,0,1-.79.93,3.72,3.72,0,0,1-1.22.57,6,6,0,0,1-1.56.2,6.8,6.8,0,0,1-.95-.06,4.38,4.38,0,0,1-.75-.14,3.8,3.8,0,0,1-.56-.17l-.38-.17V77.42a7.59,7.59,0,0,0,1.17.38,5.11,5.11,0,0,0,1.28.15,4.22,4.22,0,0,0,1-.11,2.42,2.42,0,0,0,.77-.29,1.44,1.44,0,0,0,.49-.49,1.41,1.41,0,0,0,.17-.69,1.2,1.2,0,0,0-.16-.66,1.23,1.23,0,0,0-.42-.43,2.63,2.63,0,0,0-.61-.28c-.24-.07-.48-.14-.74-.2s-.67-.16-1-.26a3.8,3.8,0,0,1-.94-.42,2,2,0,0,1-.68-.74,2.48,2.48,0,0,1-.26-1.2,2.93,2.93,0,0,1,.27-1.3,2.52,2.52,0,0,1,.73-.91,3.27,3.27,0,0,1,1.07-.54,4.26,4.26,0,0,1,1.3-.18,6.84,6.84,0,0,1,1.47.15,6.48,6.48,0,0,1,1.22.38V71.1a10.12,10.12,0,0,0-1.18-.38,5.76,5.76,0,0,0-1.24-.15,3.09,3.09,0,0,0-.92.11,1.76,1.76,0,0,0-.63.3,1.14,1.14,0,0,0-.35.47A1.37,1.37,0,0,0,182.53,72Z"/><path class="cls-3" d="M195.66,73.46V79H194V65.61h3.47q.88,0,1.5.06a6.14,6.14,0,0,1,1.13.21,3.93,3.93,0,0,1,2.14,1.3,3.54,3.54,0,0,1,.74,2.29,3.71,3.71,0,0,1-.26,1.45A3.25,3.25,0,0,1,202,72a3.65,3.65,0,0,1-1.13.77,5.8,5.8,0,0,1-1.46.44v0l4,5.74h-1.63l-4.13-5.56Zm0-6.38V72h1.62c.5,0,.93,0,1.28,0a4.22,4.22,0,0,0,.95-.18,2.62,2.62,0,0,0,1.32-.83,2.34,2.34,0,0,0,.46-1.49,2.22,2.22,0,0,0-.44-1.39,2.4,2.4,0,0,0-1.2-.76,4.41,4.41,0,0,0-.86-.16c-.33,0-.76,0-1.27,0Z"/><path class="cls-3" d="M207.81,79h-1.63V65.61h8v1.47h-6.37v4.33h5.65v1.47h-5.65Z"/><path class="cls-3" d="M228.62,72.18a7.78,7.78,0,0,1-.2,1.83,6.82,6.82,0,0,1-.57,1.59,5.91,5.91,0,0,1-.89,1.29,5.75,5.75,0,0,1-1.13,1v0c.55-.09,1.07-.16,1.57-.21a14.93,14.93,0,0,1,1.5,0v1.48l-1-.07c-.37,0-.79,0-1.27,0l-1.1,0-1.09.07-1.06.07-1,0a6.8,6.8,0,0,1-2.67-.5,5.62,5.62,0,0,1-2-1.41,6.32,6.32,0,0,1-1.25-2.18,9,9,0,0,1-.43-2.81,8.41,8.41,0,0,1,.45-2.81,6.7,6.7,0,0,1,1.26-2.2,6,6,0,0,1,2-1.44,6.43,6.43,0,0,1,2.61-.51,6.54,6.54,0,0,1,2.64.51,5.73,5.73,0,0,1,2,1.43,6.35,6.35,0,0,1,1.24,2.17A8.19,8.19,0,0,1,228.62,72.18Zm-1.72.14a7.46,7.46,0,0,0-.35-2.38,5.07,5.07,0,0,0-1-1.73,4.15,4.15,0,0,0-1.45-1,4.8,4.8,0,0,0-3.6,0,4.19,4.19,0,0,0-1.46,1,4.89,4.89,0,0,0-1,1.73,8.27,8.27,0,0,0,0,4.76,5,5,0,0,0,1,1.72,4,4,0,0,0,1.46,1,4.53,4.53,0,0,0,1.81.36,4.47,4.47,0,0,0,1.79-.36,4,4,0,0,0,1.44-1,5,5,0,0,0,1-1.72A7.46,7.46,0,0,0,226.9,72.32Z"/><path class="cls-3" d="M242.09,79h-.75L238,71c-.46-1.1-.93-2.3-1.4-3.6h-.08c.09,1.87.14,3.57.14,5.12V79H235V65.61h2.35l3.16,7.58c.36.87.76,1.92,1.19,3.14h.05c.48-1.36.88-2.4,1.2-3.14l3.15-7.58h2.36V79h-1.63V72.53c0-1.51,0-3.22.14-5.12h-.08q-.75,2.06-1.41,3.6Z"/><path class="cls-3" d="M257.23,78h0a3.58,3.58,0,0,1-.48.47,3.46,3.46,0,0,1-.67.42,4.16,4.16,0,0,1-.84.3,4.21,4.21,0,0,1-1,.11,3.72,3.72,0,0,1-1.27-.21,2.64,2.64,0,0,1-1-.6,2.53,2.53,0,0,1-.64-1,3.3,3.3,0,0,1-.24-1.29,3,3,0,0,1,.26-1.27,2.61,2.61,0,0,1,.72-1,3,3,0,0,1,1.11-.6,4.27,4.27,0,0,1,1.42-.22,8.3,8.3,0,0,1,1.38.13,8.56,8.56,0,0,1,1.12.3h0v-.66a4.65,4.65,0,0,0,0-.69,1.65,1.65,0,0,0-.17-.53,2.07,2.07,0,0,0-.83-.8,3.23,3.23,0,0,0-1.55-.31,6.61,6.61,0,0,0-1.36.13,8.63,8.63,0,0,0-1.26.38v-1.3a4.32,4.32,0,0,1,.56-.23,7,7,0,0,1,.69-.18,5.79,5.79,0,0,1,.76-.11,7.26,7.26,0,0,1,.8,0,4.8,4.8,0,0,1,2.36.51,2.82,2.82,0,0,1,1.54,2.06,5.44,5.44,0,0,1,.06.84V79h-1.3Zm-.08-3.13c-.29-.08-.63-.16-1-.23a6.46,6.46,0,0,0-1.3-.12,2.51,2.51,0,0,0-1.54.42,1.49,1.49,0,0,0-.56,1.29,2,2,0,0,0,.14.77,1.46,1.46,0,0,0,.38.55,1.73,1.73,0,0,0,.58.32,2.36,2.36,0,0,0,.72.11,2.73,2.73,0,0,0,.92-.15,3.9,3.9,0,0,0,.77-.35,3.79,3.79,0,0,0,.57-.4,4.07,4.07,0,0,0,.34-.31Z"/><path class="cls-3" d="M266.93,70.76h-.12a5.49,5.49,0,0,0-1.08.1,5.28,5.28,0,0,0-1,.3,3.92,3.92,0,0,0-.84.51,2.85,2.85,0,0,0-.63.71V79h-1.55V69.5h1.2l.3,1.51h0a3.74,3.74,0,0,1,.57-.69,3.56,3.56,0,0,1,.76-.56,3.78,3.78,0,0,1,.92-.38,4,4,0,0,1,1.05-.13h.39Z"/><path class="cls-3" d="M274.75,69.5h2l-4.66,4.38L276.77,79h-1.94L270.26,74h0V79h-1.55V64.5h1.55v9.25h0Z"/><path class="cls-3" d="M282.7,77.92a7.69,7.69,0,0,0,1.41-.13,7.84,7.84,0,0,0,1.27-.36v1.3a5.3,5.3,0,0,1-1.27.39,8.23,8.23,0,0,1-1.61.15,7,7,0,0,1-1.92-.26,4.08,4.08,0,0,1-1.55-.84,4,4,0,0,1-1-1.52,6.12,6.12,0,0,1-.37-2.26,6.42,6.42,0,0,1,.36-2.26,4.77,4.77,0,0,1,1-1.6,3.83,3.83,0,0,1,1.38-1,4.12,4.12,0,0,1,1.63-.32,4.06,4.06,0,0,1,1.49.26,3.15,3.15,0,0,1,1.21.84,4,4,0,0,1,.8,1.47,6.89,6.89,0,0,1,.3,2.17v.2c0,.06,0,.19,0,.39h-6.58a3.8,3.8,0,0,0,.28,1.55,2.72,2.72,0,0,0,.75,1,3.22,3.22,0,0,0,1.12.58A5,5,0,0,0,282.7,77.92Zm-.82-7.34a2.39,2.39,0,0,0-1,.21,2.58,2.58,0,0,0-.81.57,2.77,2.77,0,0,0-.55.85,3.26,3.26,0,0,0-.27,1h4.87a3.84,3.84,0,0,0-.14-1,2.54,2.54,0,0,0-.44-.85,2,2,0,0,0-.7-.57A2.22,2.22,0,0,0,281.88,70.58Z"/><path class="cls-3" d="M293.41,79a3.57,3.57,0,0,1-.61.15,6.57,6.57,0,0,1-1,.08,3.87,3.87,0,0,1-1.3-.19,2.37,2.37,0,0,1-.92-.53,2.19,2.19,0,0,1-.55-.84,3.12,3.12,0,0,1-.18-1.09V70.83H287V69.5h1.83V66.89h1.56V69.5h2.84v1.33h-2.84v5.55a2,2,0,0,0,.09.61,1.44,1.44,0,0,0,.3.49,1.47,1.47,0,0,0,.53.32,2.18,2.18,0,0,0,.77.12,5.14,5.14,0,0,0,.66,0c.23,0,.44-.08.63-.13Z"/><path class="cls-3" d="M304,74.15a7.22,7.22,0,0,1-.2,1.76,5.2,5.2,0,0,1-.52,1.33,3.48,3.48,0,0,1-.75,1,3.92,3.92,0,0,1-.9.62,3.8,3.8,0,0,1-.94.34,4.25,4.25,0,0,1-.9.11,3.75,3.75,0,0,1-1.52-.29,3.58,3.58,0,0,1-1.16-.84h0v5.54h-1.52V69.5h1.17l.33,1.08h0a1.76,1.76,0,0,1,.34-.39,3,3,0,0,1,.55-.41,3.76,3.76,0,0,1,.83-.37,3.32,3.32,0,0,1,1.06-.16,4.56,4.56,0,0,1,1.55.27,3.36,3.36,0,0,1,1.32.86,4.27,4.27,0,0,1,.91,1.52A6.4,6.4,0,0,1,304,74.15Zm-1.62,0a5.71,5.71,0,0,0-.18-1.5,3.32,3.32,0,0,0-.53-1.12,2.32,2.32,0,0,0-.87-.72,2.64,2.64,0,0,0-1.19-.25,2.75,2.75,0,0,0-.88.13A4,4,0,0,0,298,71a2.76,2.76,0,0,0-.55.43,4.38,4.38,0,0,0-.38.41v5a3.66,3.66,0,0,0,1.13.79,3.1,3.1,0,0,0,1.35.3,3,3,0,0,0,.94-.17,2.34,2.34,0,0,0,.91-.59,3.25,3.25,0,0,0,.69-1.16A5.44,5.44,0,0,0,302.34,74.17Z"/><path class="cls-3" d="M306.51,79V64.5h1.56V79Z"/><path class="cls-3" d="M316.75,78h0a3.58,3.58,0,0,1-.48.47,3.46,3.46,0,0,1-.67.42,4.39,4.39,0,0,1-.84.3,4.21,4.21,0,0,1-1,.11,3.72,3.72,0,0,1-1.27-.21,2.64,2.64,0,0,1-1-.6,2.67,2.67,0,0,1-.65-1,3.49,3.49,0,0,1-.23-1.29,3,3,0,0,1,.26-1.27,2.61,2.61,0,0,1,.72-1,3,3,0,0,1,1.1-.6,4.33,4.33,0,0,1,1.43-.22,8.4,8.4,0,0,1,1.38.13,8.56,8.56,0,0,1,1.12.3h0v-.66a4.65,4.65,0,0,0-.05-.69,1.94,1.94,0,0,0-.17-.53,2.07,2.07,0,0,0-.83-.8,3.26,3.26,0,0,0-1.55-.31,6.61,6.61,0,0,0-1.36.13,8.63,8.63,0,0,0-1.26.38v-1.3a3.8,3.8,0,0,1,.56-.23,7,7,0,0,1,.69-.18,5.79,5.79,0,0,1,.76-.11,7.26,7.26,0,0,1,.8,0,4.83,4.83,0,0,1,2.36.51,3.07,3.07,0,0,1,1.32,1.35,3,3,0,0,1,.22.71,5.44,5.44,0,0,1,.06.84V79h-1.3Zm-.08-3.13c-.29-.08-.63-.16-1-.23a6.46,6.46,0,0,0-1.3-.12,2.49,2.49,0,0,0-1.54.42,1.49,1.49,0,0,0-.56,1.29,1.83,1.83,0,0,0,.14.77,1.46,1.46,0,0,0,.38.55,1.64,1.64,0,0,0,.58.32,2.35,2.35,0,0,0,.71.11,2.75,2.75,0,0,0,.93-.15,3.9,3.9,0,0,0,.77-.35,3.23,3.23,0,0,0,.56-.4,3.2,3.2,0,0,0,.35-.31Z"/><path class="cls-3" d="M325.32,69.25a5.68,5.68,0,0,1,1.32.14,3.8,3.8,0,0,1,1.08.41v1.29a8.38,8.38,0,0,0-1.16-.36,4.83,4.83,0,0,0-1.08-.12,3.51,3.51,0,0,0-1.15.19,2.64,2.64,0,0,0-1,.63,3.06,3.06,0,0,0-.72,1.15,4.85,4.85,0,0,0-.28,1.78,4.6,4.6,0,0,0,.21,1.42,3.16,3.16,0,0,0,.61,1.13,2.74,2.74,0,0,0,1,.74,3.41,3.41,0,0,0,1.41.27,5.82,5.82,0,0,0,1.17-.13,5.69,5.69,0,0,0,1.15-.36v1.3a3.88,3.88,0,0,1-.44.2c-.19.06-.39.12-.61.17a6.78,6.78,0,0,1-.7.12,6.13,6.13,0,0,1-.74,0,5.74,5.74,0,0,1-1.82-.29,4.21,4.21,0,0,1-1.5-.89,4.26,4.26,0,0,1-1-1.53,5.75,5.75,0,0,1-.37-2.18,6.8,6.8,0,0,1,.19-1.7,4.93,4.93,0,0,1,.54-1.32,4,4,0,0,1,.8-1,4.16,4.16,0,0,1,1-.66,4.52,4.52,0,0,1,1.07-.37A4.92,4.92,0,0,1,325.32,69.25Z"/><path class="cls-3" d="M334.75,77.92a7.43,7.43,0,0,0,2.68-.49v1.3a5,5,0,0,1-1.27.39,8.23,8.23,0,0,1-1.61.15,7,7,0,0,1-1.92-.26,4.16,4.16,0,0,1-1.55-.84,4,4,0,0,1-1-1.52,6.12,6.12,0,0,1-.37-2.26,6.42,6.42,0,0,1,.36-2.26,4.77,4.77,0,0,1,1-1.6,3.83,3.83,0,0,1,1.38-1,4.12,4.12,0,0,1,1.63-.32,4.06,4.06,0,0,1,1.49.26,3.08,3.08,0,0,1,1.21.84,4,4,0,0,1,.8,1.47,6.89,6.89,0,0,1,.3,2.17v.2c0,.06,0,.19,0,.39h-6.58a3.8,3.8,0,0,0,.28,1.55,2.72,2.72,0,0,0,.75,1,3.22,3.22,0,0,0,1.12.58A5.11,5.11,0,0,0,334.75,77.92Zm-.82-7.34a2.39,2.39,0,0,0-1,.21,2.58,2.58,0,0,0-.81.57,2.77,2.77,0,0,0-.55.85,3.26,3.26,0,0,0-.27,1h4.87a3.84,3.84,0,0,0-.14-1,2.52,2.52,0,0,0-.43-.85,2.15,2.15,0,0,0-.7-.57A2.27,2.27,0,0,0,333.93,70.58Z"/></g></g></svg>