<svg xmlns="http://www.w3.org/2000/svg" viewBox="0 0 21.63 19.85"><defs><style>.cls-1{fill:#e94515;stroke:#e94515;stroke-miterlimit:10;stroke-width:0.25px;}</style></defs><g id="圖層_2" data-name="圖層 2"><g id="圖層_1-2" data-name="圖層 1"><path class="cls-1" d="M9.93,19.73A9.8,9.8,0,1,1,15.21,1.67a.45.45,0,0,1,.14.62.44.44,0,0,1-.62.13,8.91,8.91,0,1,0,4.11,7.51,8.14,8.14,0,0,0-.05-.87.45.45,0,0,1,.4-.49.44.44,0,0,1,.49.4c0,.31.05.63.05,1a9.82,9.82,0,0,1-9.8,9.8Z"/><path class="cls-1" d="M11.26,11.93A.42.42,0,0,1,11,11.8l-4-4a.43.43,0,0,1,0-.63.45.45,0,0,1,.63,0l3.69,3.7,9.49-9.49a.45.45,0,0,1,.63.63l-9.8,9.8a.44.44,0,0,1-.32.13Z"/></g></g></svg>